<?xml version="1.0" encoding="UTF-8" standalone="no"?>
<!DOCTYPE svg PUBLIC "-//W3C//DTD SVG 1.1//EN"
 "http://www.w3.org/Graphics/SVG/1.1/DTD/svg11.dtd">
<!-- Generated by graphviz version 14.1.2 (0)
 -->
<!-- Title: BP_99_NegativeOrEdgeCases Pages: 1 -->
<svg width="519pt" height="234pt"
 viewBox="0.00 0.00 519.00 234.00" xmlns="http://www.w3.org/2000/svg" xmlns:xlink="http://www.w3.org/1999/xlink">
<g id="graph0" class="graph" transform="scale(1 1) rotate(0) translate(4 229.5)">
<title>BP_99_NegativeOrEdgeCases</title>
<polygon fill="white" stroke="none" points="-4,4 -4,-229.5 514.5,-229.5 514.5,4 -4,4"/>
<text xml:space="preserve" text-anchor="middle" x="255.25" y="-208.2" font-family="Times New Roman,serif" font-size="14.00">BP_99_NegativeOrEdgeCases (EventGraph) &#45; INTENTIONAL incomplete structures</text>
<g id="clust1" class="cluster">
<title>cluster_neg</title>
<path fill="#fdf3f3" stroke="#b04040" stroke-dasharray="5,2" d="M20,-8C20,-8 490.5,-8 490.5,-8 496.5,-8 502.5,-14 502.5,-20 502.5,-20 502.5,-181 502.5,-181 502.5,-187 496.5,-193 490.5,-193 490.5,-193 20,-193 20,-193 14,-193 8,-187 8,-181 8,-181 8,-20 8,-20 8,-14 14,-8 20,-8"/>
<text xml:space="preserve" text-anchor="middle" x="255.25" y="-175.7" font-family="Times New Roman,serif" font-size="14.00">INTENTIONAL EDGE CASES (compiles with warnings)</text>
</g>
<!-- n1 -->
<g id="node1" class="node">
<title>n1</title>
<path fill="#ffe9c7" stroke="black" d="M155.38,-52C155.38,-52 65.12,-52 65.12,-52 59.12,-52 53.12,-46 53.12,-40 53.12,-40 53.12,-28 53.12,-28 53.12,-22 59.12,-16 65.12,-16 65.12,-16 155.38,-16 155.38,-16 161.38,-16 167.38,-22 167.38,-28 167.38,-28 167.38,-40 167.38,-40 167.38,-46 161.38,-52 155.38,-52"/>
<text xml:space="preserve" text-anchor="middle" x="110.25" y="-30.45" font-family="Segoe UI" font-size="14.00">Event BeginPlay</text>
</g>
<!-- n2 -->
<g id="node2" class="node">
<title>n2</title>
<path fill="#d8f5d8" stroke="black" d="M387.25,-52C387.25,-52 253.5,-52 253.5,-52 247.5,-52 241.5,-46 241.5,-40 241.5,-40 241.5,-28 241.5,-28 241.5,-22 247.5,-16 253.5,-16 253.5,-16 387.25,-16 387.25,-16 393.25,-16 399.25,-22 399.25,-28 399.25,-28 399.25,-40 399.25,-40 399.25,-46 393.25,-52 387.25,-52"/>
<text xml:space="preserve" text-anchor="middle" x="320.38" y="-30.45" font-family="Segoe UI" font-size="14.00">Print String (valid path)</text>
</g>
<!-- n1&#45;&gt;n2 -->
<g id="edge1" class="edge">
<title>n1&#45;&gt;n2</title>
<path fill="none" stroke="black" d="M167.85,-34C187.03,-34 208.95,-34 230.05,-34"/>
<polygon fill="black" stroke="black" points="229.81,-37.5 239.81,-34 229.81,-30.5 229.81,-37.5"/>
</g>
<!-- n3 -->
<g id="node3" class="node">
<title>n3</title>
<ellipse fill="#eef3fb" stroke="black" cx="485.5" cy="-34" rx="9" ry="9"/>
</g>
<!-- n2&#45;&gt;n3 -->
<g id="edge2" class="edge">
<title>n2&#45;&gt;n3</title>
<path fill="none" stroke="black" stroke-dasharray="5,2" d="M399.59,-34C423.85,-34 448.51,-34 464.95,-34"/>
<polygon fill="black" stroke="black" points="464.7,-37.5 474.7,-34 464.7,-30.5 464.7,-37.5"/>
<text xml:space="preserve" text-anchor="middle" x="437.88" y="-35.95" font-family="Times New Roman,serif" font-size="9.00">&#45;&gt; dangling</text>
</g>
<!-- n4 -->
<g id="node4" class="node">
<title>n4</title>
<path fill="#f0f0f0" stroke="black" d="M192.5,-106C192.5,-106 28,-106 28,-106 22,-106 16,-100 16,-94 16,-94 16,-82 16,-82 16,-76 22,-70 28,-70 28,-70 192.5,-70 192.5,-70 198.5,-70 204.5,-76 204.5,-82 204.5,-82 204.5,-94 204.5,-94 204.5,-100 198.5,-106 192.5,-106"/>
<text xml:space="preserve" text-anchor="middle" x="110.25" y="-84.45" font-family="Segoe UI" font-size="14.00">Branch (orphan, no exec&#45;in)</text>
</g>
<!-- n5 -->
<g id="node5" class="node">
<title>n5</title>
<path fill="#f0f0f0" stroke="black" d="M181.62,-160C181.62,-160 38.88,-160 38.88,-160 32.88,-160 26.88,-154 26.88,-148 26.88,-148 26.88,-136 26.88,-136 26.88,-130 32.88,-124 38.88,-124 38.88,-124 181.62,-124 181.62,-124 187.62,-124 193.62,-130 193.62,-136 193.62,-136 193.62,-148 193.62,-148 193.62,-154 187.62,-160 181.62,-160"/>
<text xml:space="preserve" text-anchor="middle" x="110.25" y="-138.45" font-family="Segoe UI" font-size="14.00">Get NeverUsed (orphan)</text>
</g>
</g>
</svg>
